<mxfile host="app.diagrams.net" agent="Mozilla/5.0 (Macintosh; Intel Mac OS X 10_15_7) AppleWebKit/537.36 (KHTML, like Gecko) Chrome/133.0.0.0 Safari/537.36" version="26.0.16">
  <diagram name="第 1 页" id="Auqwwyzbdl25uhPmtXnC">
    <mxGraphModel dx="1242" dy="700" grid="1" gridSize="10" guides="1" tooltips="1" connect="1" arrows="1" fold="1" page="1" pageScale="1" pageWidth="827" pageHeight="1169" math="0" shadow="0">
      <root>
        <mxCell id="0" />
        <mxCell id="1" parent="0" />
        <mxCell id="D4WsFgjInJ8z9swxRBo5-9" style="edgeStyle=orthogonalEdgeStyle;rounded=0;orthogonalLoop=1;jettySize=auto;html=1;exitX=0.5;exitY=1;exitDx=0;exitDy=0;entryX=0.5;entryY=0;entryDx=0;entryDy=0;" parent="1" source="D4WsFgjInJ8z9swxRBo5-1" target="D4WsFgjInJ8z9swxRBo5-3" edge="1">
          <mxGeometry relative="1" as="geometry" />
        </mxCell>
        <mxCell id="D4WsFgjInJ8z9swxRBo5-1" value="&lt;span style=&quot;font-family: Menlo, Monaco, &amp;quot;Courier New&amp;quot;, monospace; font-size: 14px; text-align: start; white-space: pre; background-color: rgb(255, 255, 255);&quot;&gt;initState&lt;/span&gt;" style="rounded=0;whiteSpace=wrap;html=1;" parent="1" vertex="1">
          <mxGeometry x="130" y="20" width="120" height="50" as="geometry" />
        </mxCell>
        <mxCell id="D4WsFgjInJ8z9swxRBo5-10" style="edgeStyle=orthogonalEdgeStyle;rounded=0;orthogonalLoop=1;jettySize=auto;html=1;exitX=0.5;exitY=1;exitDx=0;exitDy=0;entryX=0.5;entryY=0;entryDx=0;entryDy=0;" parent="1" source="D4WsFgjInJ8z9swxRBo5-3" target="D4WsFgjInJ8z9swxRBo5-7" edge="1">
          <mxGeometry relative="1" as="geometry" />
        </mxCell>
        <mxCell id="D4WsFgjInJ8z9swxRBo5-27" style="edgeStyle=orthogonalEdgeStyle;rounded=0;orthogonalLoop=1;jettySize=auto;html=1;exitX=1;exitY=0.5;exitDx=0;exitDy=0;" parent="1" source="D4WsFgjInJ8z9swxRBo5-3" edge="1">
          <mxGeometry relative="1" as="geometry">
            <mxPoint x="330" y="125" as="targetPoint" />
          </mxGeometry>
        </mxCell>
        <mxCell id="D4WsFgjInJ8z9swxRBo5-3" value="&lt;h4 style=&quot;font-weight: var(--ds-font-weight-strong); font-size: 16.002px; line-height: var(--ds-md-line-height); margin: calc(var(--ds-md-zoom)*16px)0 calc(var(--ds-md-zoom)*12px)0; font-family: Inter, system-ui, -apple-system, &amp;quot;system-ui&amp;quot;, &amp;quot;Segoe UI&amp;quot;, Roboto, &amp;quot;Noto Sans&amp;quot;, Ubuntu, Cantarell, &amp;quot;Helvetica Neue&amp;quot;, Oxygen, &amp;quot;Open Sans&amp;quot;, sans-serif; text-align: start;&quot;&gt;&lt;strong style=&quot;&quot;&gt;&lt;code style=&quot;font-size: 0.875em; font-weight: var(--ds-font-weight-strong); font-family: var(--ds-font-family-code); border-radius: 4px; padding: 0.15rem 0.3rem; background-color: rgb(255, 255, 255);&quot;&gt;&lt;font style=&quot;color: rgb(0, 0, 0);&quot;&gt;initProps&lt;/font&gt;&lt;/code&gt;&lt;/strong&gt;&lt;/h4&gt;" style="rounded=0;whiteSpace=wrap;html=1;" parent="1" vertex="1">
          <mxGeometry x="130" y="100" width="120" height="50" as="geometry" />
        </mxCell>
        <mxCell id="D4WsFgjInJ8z9swxRBo5-4" value="&lt;h4 style=&quot;font-weight: var(--ds-font-weight-strong); font-size: 16.002px; line-height: var(--ds-md-line-height); margin: calc(var(--ds-md-zoom)*16px)0 calc(var(--ds-md-zoom)*12px)0; font-family: Inter, system-ui, -apple-system, &amp;quot;system-ui&amp;quot;, &amp;quot;Segoe UI&amp;quot;, Roboto, &amp;quot;Noto Sans&amp;quot;, Ubuntu, Cantarell, &amp;quot;Helvetica Neue&amp;quot;, Oxygen, &amp;quot;Open Sans&amp;quot;, sans-serif; text-align: start;&quot;&gt;&lt;strong style=&quot;&quot;&gt;&lt;code style=&quot;font-size: 0.875em; font-weight: var(--ds-font-weight-strong); font-family: var(--ds-font-family-code); border-radius: 4px; padding: 0.15rem 0.3rem; background-color: rgb(255, 255, 255);&quot;&gt;&lt;font style=&quot;color: rgb(0, 0, 0);&quot;&gt;initWatch&lt;/font&gt;&lt;/code&gt;&lt;/strong&gt;&lt;/h4&gt;" style="rounded=0;whiteSpace=wrap;html=1;" parent="1" vertex="1">
          <mxGeometry x="130" y="690" width="120" height="40" as="geometry" />
        </mxCell>
        <mxCell id="D4WsFgjInJ8z9swxRBo5-13" style="edgeStyle=orthogonalEdgeStyle;rounded=0;orthogonalLoop=1;jettySize=auto;html=1;exitX=0.5;exitY=1;exitDx=0;exitDy=0;entryX=0.5;entryY=0;entryDx=0;entryDy=0;" parent="1" source="D4WsFgjInJ8z9swxRBo5-5" target="D4WsFgjInJ8z9swxRBo5-4" edge="1">
          <mxGeometry relative="1" as="geometry" />
        </mxCell>
        <mxCell id="D4WsFgjInJ8z9swxRBo5-5" value="&lt;h4 style=&quot;font-weight: var(--ds-font-weight-strong); font-size: 16.002px; line-height: var(--ds-md-line-height); margin: calc(var(--ds-md-zoom)*16px)0 calc(var(--ds-md-zoom)*12px)0; font-family: Inter, system-ui, -apple-system, &amp;quot;system-ui&amp;quot;, &amp;quot;Segoe UI&amp;quot;, Roboto, &amp;quot;Noto Sans&amp;quot;, Ubuntu, Cantarell, &amp;quot;Helvetica Neue&amp;quot;, Oxygen, &amp;quot;Open Sans&amp;quot;, sans-serif; text-align: start;&quot;&gt;&lt;strong style=&quot;&quot;&gt;&lt;code style=&quot;font-size: 0.875em; font-weight: var(--ds-font-weight-strong); font-family: var(--ds-font-family-code); border-radius: 4px; padding: 0.15rem 0.3rem; background-color: rgb(255, 255, 255);&quot;&gt;&lt;font style=&quot;color: rgb(0, 0, 0);&quot;&gt;initComputed&lt;/font&gt;&lt;/code&gt;&lt;/strong&gt;&lt;/h4&gt;" style="rounded=0;whiteSpace=wrap;html=1;" parent="1" vertex="1">
          <mxGeometry x="130" y="525" width="120" height="50" as="geometry" />
        </mxCell>
        <mxCell id="D4WsFgjInJ8z9swxRBo5-16" style="edgeStyle=orthogonalEdgeStyle;rounded=0;orthogonalLoop=1;jettySize=auto;html=1;exitX=0.5;exitY=1;exitDx=0;exitDy=0;entryX=0.5;entryY=0;entryDx=0;entryDy=0;" parent="1" source="D4WsFgjInJ8z9swxRBo5-6" target="D4WsFgjInJ8z9swxRBo5-5" edge="1">
          <mxGeometry relative="1" as="geometry" />
        </mxCell>
        <mxCell id="D4WsFgjInJ8z9swxRBo5-6" value="&lt;h4 style=&quot;font-weight: var(--ds-font-weight-strong); font-size: 16.002px; line-height: var(--ds-md-line-height); margin: calc(var(--ds-md-zoom)*16px)0 calc(var(--ds-md-zoom)*12px)0; font-family: Inter, system-ui, -apple-system, &amp;quot;system-ui&amp;quot;, &amp;quot;Segoe UI&amp;quot;, Roboto, &amp;quot;Noto Sans&amp;quot;, Ubuntu, Cantarell, &amp;quot;Helvetica Neue&amp;quot;, Oxygen, &amp;quot;Open Sans&amp;quot;, sans-serif; text-align: start;&quot;&gt;&lt;strong style=&quot;&quot;&gt;&lt;code style=&quot;font-size: 0.875em; font-weight: var(--ds-font-weight-strong); font-family: var(--ds-font-family-code); border-radius: 4px; padding: 0.15rem 0.3rem; background-color: rgb(255, 255, 255);&quot;&gt;&lt;font style=&quot;color: rgb(0, 0, 0);&quot;&gt;initData&lt;/font&gt;&lt;/code&gt;&lt;/strong&gt;&lt;/h4&gt;" style="rounded=0;whiteSpace=wrap;html=1;" parent="1" vertex="1">
          <mxGeometry x="130" y="380" width="120" height="40" as="geometry" />
        </mxCell>
        <mxCell id="D4WsFgjInJ8z9swxRBo5-11" style="edgeStyle=orthogonalEdgeStyle;rounded=0;orthogonalLoop=1;jettySize=auto;html=1;exitX=0.5;exitY=1;exitDx=0;exitDy=0;entryX=0.5;entryY=0;entryDx=0;entryDy=0;" parent="1" source="D4WsFgjInJ8z9swxRBo5-7" target="D4WsFgjInJ8z9swxRBo5-6" edge="1">
          <mxGeometry relative="1" as="geometry" />
        </mxCell>
        <mxCell id="D4WsFgjInJ8z9swxRBo5-7" value="&lt;h4 style=&quot;font-weight: var(--ds-font-weight-strong); font-size: 16.002px; line-height: var(--ds-md-line-height); margin: calc(var(--ds-md-zoom)*16px)0 calc(var(--ds-md-zoom)*12px)0; font-family: Inter, system-ui, -apple-system, &amp;quot;system-ui&amp;quot;, &amp;quot;Segoe UI&amp;quot;, Roboto, &amp;quot;Noto Sans&amp;quot;, Ubuntu, Cantarell, &amp;quot;Helvetica Neue&amp;quot;, Oxygen, &amp;quot;Open Sans&amp;quot;, sans-serif; text-align: start;&quot;&gt;&lt;strong style=&quot;&quot;&gt;&lt;code style=&quot;font-size: 0.875em; font-weight: var(--ds-font-weight-strong); font-family: var(--ds-font-family-code); border-radius: 4px; padding: 0.15rem 0.3rem; background-color: rgb(255, 255, 255);&quot;&gt;&lt;font style=&quot;color: rgb(0, 0, 0);&quot;&gt;initMethods&lt;/font&gt;&lt;/code&gt;&lt;/strong&gt;&lt;/h4&gt;" style="rounded=0;whiteSpace=wrap;html=1;" parent="1" vertex="1">
          <mxGeometry x="130" y="215" width="120" height="50" as="geometry" />
        </mxCell>
        <mxCell id="D4WsFgjInJ8z9swxRBo5-17" value="&lt;ol style=&quot;text-align: start;&quot; class=&quot;ol1&quot;&gt;&lt;li style=&quot;margin: 0px; font-variant-numeric: normal; font-variant-east-asian: normal; font-variant-alternates: normal; font-size-adjust: none; font-kerning: auto; font-optical-sizing: auto; font-feature-settings: normal; font-variation-settings: normal; font-variant-position: normal; font-variant-emoji: normal; font-stretch: normal; line-height: normal; font-family: &amp;quot;PingFang SC&amp;quot;;&quot; class=&quot;li1&quot;&gt;&lt;font style=&quot;font-size: 11px;&quot;&gt;&lt;span style=&quot;font-variant-numeric: normal; font-variant-east-asian: normal; font-variant-alternates: normal; font-size-adjust: none; font-kerning: auto; font-optical-sizing: auto; font-feature-settings: normal; font-variation-settings: normal; font-variant-position: normal; font-variant-emoji: normal; line-height: normal; font-family: &amp;quot;Helvetica Neue&amp;quot;; font-stretch: normal;&quot; class=&quot;s1&quot;&gt;&lt;/span&gt;遍历&lt;span style=&quot;font-variant-numeric: normal; font-variant-east-asian: normal; font-variant-alternates: normal; font-size-adjust: none; font-kerning: auto; font-optical-sizing: auto; font-feature-settings: normal; font-variation-settings: normal; font-variant-position: normal; font-variant-emoji: normal; font-stretch: normal; line-height: normal; font-family: &amp;quot;Helvetica Neue&amp;quot;;&quot; class=&quot;s1&quot;&gt;props&lt;/span&gt;配置，验证父组件传递的值是否符合类型要求。&lt;/font&gt;&lt;/li&gt;&lt;li style=&quot;margin: 0px; font-variant-numeric: normal; font-variant-east-asian: normal; font-variant-alternates: normal; font-size-adjust: none; font-kerning: auto; font-optical-sizing: auto; font-feature-settings: normal; font-variation-settings: normal; font-variant-position: normal; font-variant-emoji: normal; font-stretch: normal; line-height: normal; font-family: &amp;quot;PingFang SC&amp;quot;;&quot; class=&quot;li1&quot;&gt;&lt;font style=&quot;font-size: 11px;&quot;&gt;&lt;span style=&quot;font-variant-numeric: normal; font-variant-east-asian: normal; font-variant-alternates: normal; font-size-adjust: none; font-kerning: auto; font-optical-sizing: auto; font-feature-settings: normal; font-variation-settings: normal; font-variant-position: normal; font-variant-emoji: normal; font-stretch: normal; line-height: normal; font-family: &amp;quot;Helvetica Neue&amp;quot;;&quot; class=&quot;s1&quot;&gt;&lt;/span&gt;将&lt;span style=&quot;font-variant-numeric: normal; font-variant-east-asian: normal; font-variant-alternates: normal; font-size-adjust: none; font-kerning: auto; font-optical-sizing: auto; font-feature-settings: normal; font-variation-settings: normal; font-variant-position: normal; font-variant-emoji: normal; font-stretch: normal; line-height: normal; font-family: &amp;quot;Helvetica Neue&amp;quot;;&quot; class=&quot;s1&quot;&gt;props&lt;/span&gt;设置为响应式（通过&lt;span style=&quot;font-variant-numeric: normal; font-variant-east-asian: normal; font-variant-alternates: normal; font-size-adjust: none; font-kerning: auto; font-optical-sizing: auto; font-feature-settings: normal; font-variation-settings: normal; font-variant-position: normal; font-variant-emoji: normal; font-stretch: normal; line-height: normal; font-family: &amp;quot;Helvetica Neue&amp;quot;;&quot; class=&quot;s1&quot;&gt;defineReactive&lt;/span&gt;），但&lt;b&gt;禁止子组件直接修改&lt;/b&gt;（通过&lt;span style=&quot;font-variant-numeric: normal; font-variant-east-asian: normal; font-variant-alternates: normal; font-size-adjust: none; font-kerning: auto; font-optical-sizing: auto; font-feature-settings: normal; font-variation-settings: normal; font-variant-position: normal; font-variant-emoji: normal; font-stretch: normal; line-height: normal; font-family: &amp;quot;Helvetica Neue&amp;quot;;&quot; class=&quot;s1&quot;&gt;setter&lt;/span&gt;触发警告）。&lt;/font&gt;&lt;/li&gt;&lt;li style=&quot;margin: 0px; font-variant-numeric: normal; font-variant-east-asian: normal; font-variant-alternates: normal; font-size-adjust: none; font-kerning: auto; font-optical-sizing: auto; font-feature-settings: normal; font-variation-settings: normal; font-variant-position: normal; font-variant-emoji: normal; font-stretch: normal; line-height: normal; font-family: &amp;quot;Helvetica Neue&amp;quot;;&quot; class=&quot;li2&quot;&gt;&lt;font style=&quot;font-size: 11px;&quot;&gt;&lt;span style=&quot;font-variant-numeric: normal; font-variant-east-asian: normal; font-variant-alternates: normal; font-size-adjust: none; font-kerning: auto; font-optical-sizing: auto; font-feature-settings: normal; font-variation-settings: normal; font-variant-position: normal; font-variant-emoji: normal; font-stretch: normal; line-height: normal; font-family: &amp;quot;PingFang SC&amp;quot;;&quot; class=&quot;s2&quot;&gt;通过代理使&lt;/span&gt;this.propName&lt;span style=&quot;font-variant-numeric: normal; font-variant-east-asian: normal; font-variant-alternates: normal; font-size-adjust: none; font-kerning: auto; font-optical-sizing: auto; font-feature-settings: normal; font-variation-settings: normal; font-variant-position: normal; font-variant-emoji: normal; font-stretch: normal; line-height: normal; font-family: &amp;quot;PingFang SC&amp;quot;;&quot; class=&quot;s2&quot;&gt;直接访问（而非&lt;/span&gt;this._props.propName&lt;span style=&quot;font-variant-numeric: normal; font-variant-east-asian: normal; font-variant-alternates: normal; font-size-adjust: none; font-kerning: auto; font-optical-sizing: auto; font-feature-settings: normal; font-variation-settings: normal; font-variant-position: normal; font-variant-emoji: normal; font-stretch: normal; line-height: normal; font-family: &amp;quot;PingFang SC&amp;quot;;&quot; class=&quot;s2&quot;&gt;）。&lt;/span&gt;&lt;/font&gt;&lt;/li&gt;&lt;/ol&gt;" style="shape=note;whiteSpace=wrap;html=1;backgroundOutline=1;darkOpacity=0.05;" parent="1" vertex="1">
          <mxGeometry x="340" y="80" width="400" height="80" as="geometry" />
        </mxCell>
        <mxCell id="D4WsFgjInJ8z9swxRBo5-18" value="&lt;ul style=&quot;margin: calc(var(--ds-md-zoom)*12px)0; padding-left: calc(var(--ds-md-zoom)*24px); color: rgb(64, 64, 64); font-family: Inter, system-ui, -apple-system, &amp;quot;system-ui&amp;quot;, &amp;quot;Segoe UI&amp;quot;, Roboto, &amp;quot;Noto Sans&amp;quot;, Ubuntu, Cantarell, &amp;quot;Helvetica Neue&amp;quot;, Oxygen, &amp;quot;Open Sans&amp;quot;, sans-serif; text-align: start;&quot;&gt;&lt;li style=&quot;&quot;&gt;&lt;p style=&quot;margin-top: 0px; margin-right: 0px; margin-left: 0px; line-height: var(--ds-md-line-height); margin-bottom: 0px !important;&quot;&gt;&lt;font style=&quot;font-size: 11px;&quot;&gt;&lt;strong style=&quot;&quot;&gt;功能&lt;/strong&gt;：将&lt;code style=&quot;font-weight: var(--ds-font-weight-strong); font-family: var(--ds-font-family-code); background-color: var(--ds-md-inline-code-color,#ececec); border-radius: 4px; padding: 0.15rem 0.3rem;&quot;&gt;methods&lt;/code&gt;绑定到实例，确保方法中的&lt;code style=&quot;font-weight: var(--ds-font-weight-strong); font-family: var(--ds-font-family-code); background-color: var(--ds-md-inline-code-color,#ececec); border-radius: 4px; padding: 0.15rem 0.3rem;&quot;&gt;this&lt;/code&gt;指向实例。&lt;/font&gt;&lt;/p&gt;&lt;/li&gt;&lt;li style=&quot;margin-top: 4px;&quot;&gt;&lt;p style=&quot;margin: 0px 0px 4px; line-height: var(--ds-md-line-height);&quot;&gt;&lt;font style=&quot;font-size: 11px;&quot;&gt;&lt;strong&gt;步骤&lt;/strong&gt;：&lt;/font&gt;&lt;/p&gt;&lt;ol style=&quot;margin-top: 4px; margin-bottom: 0px; padding-left: calc(var(--ds-md-zoom)*24px);&quot; start=&quot;1&quot;&gt;&lt;li style=&quot;&quot;&gt;&lt;p style=&quot;margin-top: 0px; margin-right: 0px; margin-left: 0px; line-height: var(--ds-md-line-height); margin-bottom: 0px !important;&quot;&gt;&lt;font style=&quot;font-size: 11px;&quot;&gt;遍历&lt;code style=&quot;font-weight: var(--ds-font-weight-strong); font-family: var(--ds-font-family-code); background-color: var(--ds-md-inline-code-color,#ececec); border-radius: 4px; padding: 0.15rem 0.3rem;&quot;&gt;methods&lt;/code&gt;对象，检查是否与&lt;code style=&quot;font-weight: var(--ds-font-weight-strong); font-family: var(--ds-font-family-code); background-color: var(--ds-md-inline-code-color,#ececec); border-radius: 4px; padding: 0.15rem 0.3rem;&quot;&gt;props&lt;/code&gt;或保留字冲突。&lt;/font&gt;&lt;/p&gt;&lt;/li&gt;&lt;li style=&quot;margin-top: 4px;&quot;&gt;&lt;p style=&quot;margin-top: 0px; margin-right: 0px; margin-left: 0px; line-height: var(--ds-md-line-height); margin-bottom: 0px !important;&quot;&gt;&lt;font style=&quot;font-size: 11px;&quot;&gt;将方法通过&lt;code style=&quot;font-weight: var(--ds-font-weight-strong); font-family: var(--ds-font-family-code); background-color: var(--ds-md-inline-code-color,#ececec); border-radius: 4px; padding: 0.15rem 0.3rem;&quot;&gt;bind&lt;/code&gt;绑定到实例，或直接赋值（若已绑定）。&lt;/font&gt;&lt;/p&gt;&lt;/li&gt;&lt;/ol&gt;&lt;/li&gt;&lt;/ul&gt;" style="shape=note;whiteSpace=wrap;html=1;backgroundOutline=1;darkOpacity=0.05;" parent="1" vertex="1">
          <mxGeometry x="340" y="190" width="400" height="100" as="geometry" />
        </mxCell>
        <mxCell id="D4WsFgjInJ8z9swxRBo5-19" style="edgeStyle=orthogonalEdgeStyle;rounded=0;orthogonalLoop=1;jettySize=auto;html=1;exitX=0.5;exitY=1;exitDx=0;exitDy=0;exitPerimeter=0;" parent="1" source="D4WsFgjInJ8z9swxRBo5-17" target="D4WsFgjInJ8z9swxRBo5-17" edge="1">
          <mxGeometry relative="1" as="geometry" />
        </mxCell>
        <mxCell id="D4WsFgjInJ8z9swxRBo5-20" value="&lt;ul style=&quot;margin: calc(var(--ds-md-zoom)*12px)0; padding-left: calc(var(--ds-md-zoom)*24px); color: rgb(64, 64, 64); font-family: Inter, system-ui, -apple-system, &amp;quot;system-ui&amp;quot;, &amp;quot;Segoe UI&amp;quot;, Roboto, &amp;quot;Noto Sans&amp;quot;, Ubuntu, Cantarell, &amp;quot;Helvetica Neue&amp;quot;, Oxygen, &amp;quot;Open Sans&amp;quot;, sans-serif;&quot;&gt;&lt;li style=&quot;&quot;&gt;&lt;p style=&quot;margin-top: 0px; margin-right: 0px; margin-left: 0px; line-height: var(--ds-md-line-height); margin-bottom: 0px !important;&quot;&gt;&lt;font style=&quot;font-size: 11px;&quot;&gt;&lt;strong style=&quot;&quot;&gt;功能&lt;/strong&gt;：初始化&lt;code style=&quot;font-weight: var(--ds-font-weight-strong); font-family: var(--ds-font-family-code); background-color: var(--ds-md-inline-code-color,#ececec); border-radius: 4px; padding: 0.15rem 0.3rem;&quot;&gt;data&lt;/code&gt;，转换为响应式对象。&lt;/font&gt;&lt;/p&gt;&lt;/li&gt;&lt;li style=&quot;margin-top: 4px;&quot;&gt;&lt;p style=&quot;margin: 0px 0px 4px; line-height: var(--ds-md-line-height);&quot;&gt;&lt;font style=&quot;font-size: 11px;&quot;&gt;&lt;strong&gt;步骤&lt;/strong&gt;：&lt;/font&gt;&lt;/p&gt;&lt;ol style=&quot;margin-top: 4px; margin-bottom: 0px; padding-left: calc(var(--ds-md-zoom)*24px);&quot; start=&quot;1&quot;&gt;&lt;li style=&quot;&quot;&gt;&lt;p style=&quot;margin-top: 0px; margin-right: 0px; margin-left: 0px; line-height: var(--ds-md-line-height); margin-bottom: 0px !important;&quot;&gt;&lt;font style=&quot;font-size: 11px;&quot;&gt;获取&lt;code style=&quot;font-weight: var(--ds-font-weight-strong); font-family: var(--ds-font-family-code); background-color: var(--ds-md-inline-code-color,#ececec); border-radius: 4px; padding: 0.15rem 0.3rem;&quot;&gt;data&lt;/code&gt;函数返回的对象（若为函数），否则直接使用。&lt;/font&gt;&lt;/p&gt;&lt;/li&gt;&lt;li style=&quot;margin-top: 4px;&quot;&gt;&lt;p style=&quot;margin-top: 0px; margin-right: 0px; margin-left: 0px; line-height: var(--ds-md-line-height); margin-bottom: 0px !important;&quot;&gt;&lt;font style=&quot;font-size: 11px;&quot;&gt;检查&lt;code style=&quot;font-weight: var(--ds-font-weight-strong); font-family: var(--ds-font-family-code); background-color: var(--ds-md-inline-code-color,#ececec); border-radius: 4px; padding: 0.15rem 0.3rem;&quot;&gt;data&lt;/code&gt;与&lt;code style=&quot;font-weight: var(--ds-font-weight-strong); font-family: var(--ds-font-family-code); background-color: var(--ds-md-inline-code-color,#ececec); border-radius: 4px; padding: 0.15rem 0.3rem;&quot;&gt;props&lt;/code&gt;、&lt;code style=&quot;font-weight: var(--ds-font-weight-strong); font-family: var(--ds-font-family-code); background-color: var(--ds-md-inline-code-color,#ececec); border-radius: 4px; padding: 0.15rem 0.3rem;&quot;&gt;methods&lt;/code&gt;的命名冲突。&lt;/font&gt;&lt;/p&gt;&lt;/li&gt;&lt;li style=&quot;margin-top: 4px;&quot;&gt;&lt;p style=&quot;margin-top: 0px; margin-right: 0px; margin-left: 0px; line-height: var(--ds-md-line-height); margin-bottom: 0px !important;&quot;&gt;&lt;font style=&quot;font-size: 11px;&quot;&gt;代理&lt;code style=&quot;font-weight: var(--ds-font-weight-strong); font-family: var(--ds-font-family-code); background-color: var(--ds-md-inline-code-color,#ececec); border-radius: 4px; padding: 0.15rem 0.3rem;&quot;&gt;data&lt;/code&gt;属性到实例（&lt;code style=&quot;font-weight: var(--ds-font-weight-strong); font-family: var(--ds-font-family-code); background-color: var(--ds-md-inline-code-color,#ececec); border-radius: 4px; padding: 0.15rem 0.3rem;&quot;&gt;this.key&lt;/code&gt;映射到&lt;code style=&quot;font-weight: var(--ds-font-weight-strong); font-family: var(--ds-font-family-code); background-color: var(--ds-md-inline-code-color,#ececec); border-radius: 4px; padding: 0.15rem 0.3rem;&quot;&gt;this._data.key&lt;/code&gt;）。&lt;/font&gt;&lt;/p&gt;&lt;/li&gt;&lt;li style=&quot;margin-top: 4px;&quot;&gt;&lt;p style=&quot;margin-top: 0px; margin-right: 0px; margin-left: 0px; line-height: var(--ds-md-line-height); margin-bottom: 0px !important;&quot;&gt;&lt;font style=&quot;font-size: 11px;&quot;&gt;调用&lt;code style=&quot;font-weight: var(--ds-font-weight-strong); font-family: var(--ds-font-family-code); background-color: var(--ds-md-inline-code-color,#ececec); border-radius: 4px; padding: 0.15rem 0.3rem;&quot;&gt;observe(data, true)&lt;/code&gt;，将其转换为响应式（通过&lt;code style=&quot;font-weight: var(--ds-font-weight-strong); font-family: var(--ds-font-family-code); background-color: var(--ds-md-inline-code-color,#ececec); border-radius: 4px; padding: 0.15rem 0.3rem;&quot;&gt;Observer&lt;/code&gt;类和&lt;code style=&quot;font-weight: var(--ds-font-weight-strong); font-family: var(--ds-font-family-code); background-color: var(--ds-md-inline-code-color,#ececec); border-radius: 4px; padding: 0.15rem 0.3rem;&quot;&gt;Object.defineProperty&lt;/code&gt;）。&lt;/font&gt;&lt;/p&gt;&lt;/li&gt;&lt;/ol&gt;&lt;/li&gt;&lt;/ul&gt;" style="shape=note;whiteSpace=wrap;html=1;backgroundOutline=1;darkOpacity=0.05;align=left;spacingLeft=29;" parent="1" vertex="1">
          <mxGeometry x="340" y="330" width="400" height="140" as="geometry" />
        </mxCell>
        <mxCell id="D4WsFgjInJ8z9swxRBo5-22" style="edgeStyle=orthogonalEdgeStyle;rounded=0;orthogonalLoop=1;jettySize=auto;html=1;exitX=1;exitY=0.5;exitDx=0;exitDy=0;entryX=0;entryY=0.5;entryDx=0;entryDy=0;entryPerimeter=0;" parent="1" source="D4WsFgjInJ8z9swxRBo5-6" target="D4WsFgjInJ8z9swxRBo5-20" edge="1">
          <mxGeometry relative="1" as="geometry" />
        </mxCell>
        <mxCell id="D4WsFgjInJ8z9swxRBo5-26" style="edgeStyle=orthogonalEdgeStyle;rounded=0;orthogonalLoop=1;jettySize=auto;html=1;exitX=0.5;exitY=1;exitDx=0;exitDy=0;exitPerimeter=0;" parent="1" source="D4WsFgjInJ8z9swxRBo5-18" target="D4WsFgjInJ8z9swxRBo5-18" edge="1">
          <mxGeometry relative="1" as="geometry" />
        </mxCell>
        <mxCell id="D4WsFgjInJ8z9swxRBo5-28" value="&lt;ul style=&quot;margin: calc(var(--ds-md-zoom)*12px)0; padding-left: calc(var(--ds-md-zoom)*24px); color: rgb(64, 64, 64); font-family: Inter, system-ui, -apple-system, &amp;quot;system-ui&amp;quot;, &amp;quot;Segoe UI&amp;quot;, Roboto, &amp;quot;Noto Sans&amp;quot;, Ubuntu, Cantarell, &amp;quot;Helvetica Neue&amp;quot;, Oxygen, &amp;quot;Open Sans&amp;quot;, sans-serif; text-align: start;&quot;&gt;&lt;li style=&quot;&quot;&gt;&lt;p style=&quot;margin-top: 0px; margin-right: 0px; margin-left: 0px; line-height: var(--ds-md-line-height); margin-bottom: 0px !important;&quot;&gt;&lt;font style=&quot;font-size: 11px;&quot;&gt;&lt;strong style=&quot;&quot;&gt;功能&lt;/strong&gt;：初始化计算属性，创建惰性求值的&lt;code style=&quot;font-weight: var(--ds-font-weight-strong); font-family: var(--ds-font-family-code); background-color: var(--ds-md-inline-code-color,#ececec); border-radius: 4px; padding: 0.15rem 0.3rem;&quot;&gt;Watcher&lt;/code&gt;。&lt;/font&gt;&lt;/p&gt;&lt;/li&gt;&lt;li style=&quot;margin-top: 4px;&quot;&gt;&lt;p style=&quot;margin: 0px 0px 4px; line-height: var(--ds-md-line-height);&quot;&gt;&lt;font style=&quot;font-size: 11px;&quot;&gt;&lt;strong&gt;步骤&lt;/strong&gt;：&lt;/font&gt;&lt;/p&gt;&lt;ol style=&quot;margin-top: 4px; margin-bottom: 0px; padding-left: calc(var(--ds-md-zoom)*24px);&quot; start=&quot;1&quot;&gt;&lt;li style=&quot;&quot;&gt;&lt;p style=&quot;margin-top: 0px; margin-right: 0px; margin-left: 0px; line-height: var(--ds-md-line-height); margin-bottom: 0px !important;&quot;&gt;&lt;font style=&quot;font-size: 11px;&quot;&gt;遍历&lt;code style=&quot;font-weight: var(--ds-font-weight-strong); font-family: var(--ds-font-family-code); background-color: var(--ds-md-inline-code-color,#ececec); border-radius: 4px; padding: 0.15rem 0.3rem;&quot;&gt;computed&lt;/code&gt;对象，检查命名冲突。&lt;/font&gt;&lt;/p&gt;&lt;/li&gt;&lt;li style=&quot;margin-top: 4px;&quot;&gt;&lt;p style=&quot;margin-top: 0px; margin-right: 0px; margin-left: 0px; line-height: var(--ds-md-line-height); margin-bottom: 0px !important;&quot;&gt;&lt;font style=&quot;font-size: 11px;&quot;&gt;为每个计算属性创建&lt;code style=&quot;font-weight: var(--ds-font-weight-strong); font-family: var(--ds-font-family-code); background-color: var(--ds-md-inline-code-color,#ececec); border-radius: 4px; padding: 0.15rem 0.3rem;&quot;&gt;Watcher&lt;/code&gt;实例（&lt;code style=&quot;font-weight: var(--ds-font-weight-strong); font-family: var(--ds-font-family-code); background-color: var(--ds-md-inline-code-color,#ececec); border-radius: 4px; padding: 0.15rem 0.3rem;&quot;&gt;lazy: true&lt;/code&gt;），延迟求值。&lt;/font&gt;&lt;/p&gt;&lt;/li&gt;&lt;li style=&quot;margin-top: 4px;&quot;&gt;&lt;p style=&quot;margin-top: 0px; margin-right: 0px; margin-left: 0px; line-height: var(--ds-md-line-height); margin-bottom: 0px !important;&quot;&gt;&lt;font style=&quot;font-size: 11px;&quot;&gt;使用&lt;code style=&quot;font-weight: var(--ds-font-weight-strong); font-family: var(--ds-font-family-code); background-color: var(--ds-md-inline-code-color,#ececec); border-radius: 4px; padding: 0.15rem 0.3rem;&quot;&gt;defineComputed&lt;/code&gt;将属性定义到实例，实现缓存逻辑（通过&lt;code style=&quot;font-weight: var(--ds-font-weight-strong); font-family: var(--ds-font-family-code); background-color: var(--ds-md-inline-code-color,#ececec); border-radius: 4px; padding: 0.15rem 0.3rem;&quot;&gt;dirty&lt;/code&gt;标志和依赖触发更新）。&lt;/font&gt;&lt;/p&gt;&lt;/li&gt;&lt;/ol&gt;&lt;/li&gt;&lt;/ul&gt;" style="shape=note;whiteSpace=wrap;html=1;backgroundOutline=1;darkOpacity=0.05;spacingLeft=25;" parent="1" vertex="1">
          <mxGeometry x="340" y="490" width="400" height="120" as="geometry" />
        </mxCell>
        <mxCell id="D4WsFgjInJ8z9swxRBo5-29" style="edgeStyle=orthogonalEdgeStyle;rounded=0;orthogonalLoop=1;jettySize=auto;html=1;exitX=1;exitY=0.5;exitDx=0;exitDy=0;entryX=0;entryY=0.5;entryDx=0;entryDy=0;entryPerimeter=0;" parent="1" source="D4WsFgjInJ8z9swxRBo5-5" target="D4WsFgjInJ8z9swxRBo5-28" edge="1">
          <mxGeometry relative="1" as="geometry" />
        </mxCell>
        <mxCell id="D4WsFgjInJ8z9swxRBo5-30" value="&lt;ul style=&quot;margin: calc(var(--ds-md-zoom)*12px)0; padding-left: calc(var(--ds-md-zoom)*24px); color: rgb(64, 64, 64); font-family: Inter, system-ui, -apple-system, &amp;quot;system-ui&amp;quot;, &amp;quot;Segoe UI&amp;quot;, Roboto, &amp;quot;Noto Sans&amp;quot;, Ubuntu, Cantarell, &amp;quot;Helvetica Neue&amp;quot;, Oxygen, &amp;quot;Open Sans&amp;quot;, sans-serif; text-align: start;&quot;&gt;&lt;li style=&quot;&quot;&gt;&lt;p style=&quot;margin-top: 0px; margin-right: 0px; margin-left: 0px; line-height: var(--ds-md-line-height); margin-bottom: 0px !important;&quot;&gt;&lt;font style=&quot;font-size: 11px;&quot;&gt;&lt;strong style=&quot;&quot;&gt;功能&lt;/strong&gt;：创建观察者，监听数据变化执行回调。&lt;/font&gt;&lt;/p&gt;&lt;/li&gt;&lt;li style=&quot;margin-top: 4px;&quot;&gt;&lt;p style=&quot;margin: 0px 0px 4px; line-height: var(--ds-md-line-height);&quot;&gt;&lt;font style=&quot;font-size: 11px;&quot;&gt;&lt;strong&gt;步骤&lt;/strong&gt;：&lt;/font&gt;&lt;/p&gt;&lt;ol style=&quot;margin-top: 4px; margin-bottom: 0px; padding-left: calc(var(--ds-md-zoom)*24px);&quot; start=&quot;1&quot;&gt;&lt;li style=&quot;&quot;&gt;&lt;p style=&quot;margin-top: 0px; margin-right: 0px; margin-left: 0px; line-height: var(--ds-md-line-height); margin-bottom: 0px !important;&quot;&gt;&lt;font style=&quot;font-size: 11px;&quot;&gt;遍历&lt;code style=&quot;font-weight: var(--ds-font-weight-strong); font-family: var(--ds-font-family-code); background-color: var(--ds-md-inline-code-color,#ececec); border-radius: 4px; padding: 0.15rem 0.3rem;&quot;&gt;watch&lt;/code&gt;对象，每个键（表达式）对应一个或多个处理函数。&lt;/font&gt;&lt;/p&gt;&lt;/li&gt;&lt;li style=&quot;margin-top: 4px;&quot;&gt;&lt;p style=&quot;margin-top: 0px; margin-right: 0px; margin-left: 0px; line-height: var(--ds-md-line-height); margin-bottom: 0px !important;&quot;&gt;&lt;font style=&quot;font-size: 11px;&quot;&gt;调用&lt;code style=&quot;font-weight: var(--ds-font-weight-strong); font-family: var(--ds-font-family-code); background-color: var(--ds-md-inline-code-color,#ececec); border-radius: 4px; padding: 0.15rem 0.3rem;&quot;&gt;vm.$watch&lt;/code&gt;创建用户&lt;code style=&quot;font-weight: var(--ds-font-weight-strong); font-family: var(--ds-font-family-code); background-color: var(--ds-md-inline-code-color,#ececec); border-radius: 4px; padding: 0.15rem 0.3rem;&quot;&gt;Watcher&lt;/code&gt;，支持&lt;code style=&quot;font-weight: var(--ds-font-weight-strong); font-family: var(--ds-font-family-code); background-color: var(--ds-md-inline-code-color,#ececec); border-radius: 4px; padding: 0.15rem 0.3rem;&quot;&gt;deep&lt;/code&gt;、&lt;code style=&quot;font-weight: var(--ds-font-weight-strong); font-family: var(--ds-font-family-code); background-color: var(--ds-md-inline-code-color,#ececec); border-radius: 4px; padding: 0.15rem 0.3rem;&quot;&gt;immediate&lt;/code&gt;等选项。&lt;/font&gt;&lt;/p&gt;&lt;/li&gt;&lt;li style=&quot;margin-top: 4px;&quot;&gt;&lt;p style=&quot;margin-top: 0px; margin-right: 0px; margin-left: 0px; line-height: var(--ds-md-line-height); margin-bottom: 0px !important;&quot;&gt;&lt;font style=&quot;font-size: 11px;&quot;&gt;&lt;code style=&quot;font-weight: var(--ds-font-weight-strong); font-family: var(--ds-font-family-code); background-color: var(--ds-md-inline-code-color,#ececec); border-radius: 4px; padding: 0.15rem 0.3rem;&quot;&gt;deep: true&lt;/code&gt;时递归监听对象内部值的变化。&lt;/font&gt;&lt;/p&gt;&lt;/li&gt;&lt;/ol&gt;&lt;/li&gt;&lt;/ul&gt;" style="shape=note;whiteSpace=wrap;html=1;backgroundOutline=1;darkOpacity=0.05;" parent="1" vertex="1">
          <mxGeometry x="340" y="650" width="420" height="120" as="geometry" />
        </mxCell>
        <mxCell id="D4WsFgjInJ8z9swxRBo5-31" style="edgeStyle=orthogonalEdgeStyle;rounded=0;orthogonalLoop=1;jettySize=auto;html=1;exitX=1;exitY=0.5;exitDx=0;exitDy=0;entryX=0;entryY=0.5;entryDx=0;entryDy=0;entryPerimeter=0;" parent="1" source="D4WsFgjInJ8z9swxRBo5-4" target="D4WsFgjInJ8z9swxRBo5-30" edge="1">
          <mxGeometry relative="1" as="geometry" />
        </mxCell>
        <mxCell id="D4WsFgjInJ8z9swxRBo5-32" style="edgeStyle=orthogonalEdgeStyle;rounded=0;orthogonalLoop=1;jettySize=auto;html=1;exitX=1;exitY=0.5;exitDx=0;exitDy=0;entryX=0;entryY=0.5;entryDx=0;entryDy=0;entryPerimeter=0;" parent="1" source="D4WsFgjInJ8z9swxRBo5-7" target="D4WsFgjInJ8z9swxRBo5-18" edge="1">
          <mxGeometry relative="1" as="geometry" />
        </mxCell>
        <mxCell id="LfTLb_S3eUnLYIaT0gQN-1" value="&lt;h3 style=&quot;font-weight: var(--ds-font-weight-strong); line-height: 1.5; margin: calc(var(--ds-md-zoom)*16px)0 calc(var(--ds-md-zoom)*12px)0; font-family: Inter, system-ui, -apple-system, &amp;quot;system-ui&amp;quot;, &amp;quot;Segoe UI&amp;quot;, Roboto, &amp;quot;Noto Sans&amp;quot;, Ubuntu, Cantarell, &amp;quot;Helvetica Neue&amp;quot;, Oxygen, &amp;quot;Open Sans&amp;quot;, sans-serif; text-align: start;&quot;&gt;&lt;strong style=&quot;&quot;&gt;&lt;font style=&quot;color: rgb(255, 0, 0);&quot;&gt;关键细节&lt;/font&gt;&lt;/strong&gt;&lt;/h3&gt;&lt;ul style=&quot;margin: calc(var(--ds-md-zoom)*12px)0; padding-left: calc(var(--ds-md-zoom)*24px); color: rgb(64, 64, 64); font-family: Inter, system-ui, -apple-system, &amp;quot;system-ui&amp;quot;, &amp;quot;Segoe UI&amp;quot;, Roboto, &amp;quot;Noto Sans&amp;quot;, Ubuntu, Cantarell, &amp;quot;Helvetica Neue&amp;quot;, Oxygen, &amp;quot;Open Sans&amp;quot;, sans-serif; text-align: start;&quot;&gt;&lt;li&gt;&lt;p style=&quot;margin: 0px 0px 4px; line-height: var(--ds-md-line-height);&quot;&gt;&lt;strong&gt;响应式系统集成&lt;/strong&gt;：&lt;/p&gt;&lt;ul style=&quot;margin-top: 4px; margin-right: ; margin-bottom: 0px; margin-left: ; padding-left: calc(var(--ds-md-zoom)*24px);&quot;&gt;&lt;li&gt;&lt;p style=&quot;margin-top: 0px; margin-right: 0px; margin-left: 0px; line-height: var(--ds-md-line-height); margin-bottom: 0px !important;&quot;&gt;&lt;code style=&quot;font-weight: var(--ds-font-weight-strong); font-family: var(--ds-font-family-code); background-color: var(--ds-md-inline-code-color,#ececec); border-radius: 4px; padding: 0.15rem 0.3rem;&quot;&gt;data&lt;/code&gt;和&lt;code style=&quot;font-weight: var(--ds-font-weight-strong); font-family: var(--ds-font-family-code); background-color: var(--ds-md-inline-code-color,#ececec); border-radius: 4px; padding: 0.15rem 0.3rem;&quot;&gt;props&lt;/code&gt;通过&lt;code style=&quot;font-weight: var(--ds-font-weight-strong); font-family: var(--ds-font-family-code); background-color: var(--ds-md-inline-code-color,#ececec); border-radius: 4px; padding: 0.15rem 0.3rem;&quot;&gt;Observer&lt;/code&gt;转换为响应式，依赖收集和派发更新由&lt;code style=&quot;font-weight: var(--ds-font-weight-strong); font-family: var(--ds-font-family-code); background-color: var(--ds-md-inline-code-color,#ececec); border-radius: 4px; padding: 0.15rem 0.3rem;&quot;&gt;Dep&lt;/code&gt;和&lt;code style=&quot;font-weight: var(--ds-font-weight-strong); font-family: var(--ds-font-family-code); background-color: var(--ds-md-inline-code-color,#ececec); border-radius: 4px; padding: 0.15rem 0.3rem;&quot;&gt;Watcher&lt;/code&gt;管理。&lt;/p&gt;&lt;/li&gt;&lt;li style=&quot;margin-top: 4px;&quot;&gt;&lt;p style=&quot;margin-top: 0px; margin-right: 0px; margin-left: 0px; line-height: var(--ds-md-line-height); margin-bottom: 0px !important;&quot;&gt;计算属性依赖的响应式数据变化时，标记&lt;code style=&quot;font-weight: var(--ds-font-weight-strong); font-family: var(--ds-font-family-code); background-color: var(--ds-md-inline-code-color,#ececec); border-radius: 4px; padding: 0.15rem 0.3rem;&quot;&gt;dirty&lt;/code&gt;，下次访问时重新计算。&lt;/p&gt;&lt;/li&gt;&lt;/ul&gt;&lt;/li&gt;&lt;li style=&quot;margin-top: 4px;&quot;&gt;&lt;p style=&quot;margin: 0px 0px 4px; line-height: var(--ds-md-line-height);&quot;&gt;&lt;strong&gt;代理与访问&lt;/strong&gt;：&lt;/p&gt;&lt;ul style=&quot;margin-top: 4px; margin-right: ; margin-bottom: 0px; margin-left: ; padding-left: calc(var(--ds-md-zoom)*24px);&quot;&gt;&lt;li&gt;&lt;p style=&quot;margin-top: 0px; margin-right: 0px; margin-left: 0px; line-height: var(--ds-md-line-height); margin-bottom: 0px !important;&quot;&gt;&lt;code style=&quot;font-weight: var(--ds-font-weight-strong); font-family: var(--ds-font-family-code); background-color: var(--ds-md-inline-code-color,#ececec); border-radius: 4px; padding: 0.15rem 0.3rem;&quot;&gt;props&lt;/code&gt;、&lt;code style=&quot;font-weight: var(--ds-font-weight-strong); font-family: var(--ds-font-family-code); background-color: var(--ds-md-inline-code-color,#ececec); border-radius: 4px; padding: 0.15rem 0.3rem;&quot;&gt;data&lt;/code&gt;、&lt;code style=&quot;font-weight: var(--ds-font-weight-strong); font-family: var(--ds-font-family-code); background-color: var(--ds-md-inline-code-color,#ececec); border-radius: 4px; padding: 0.15rem 0.3rem;&quot;&gt;methods&lt;/code&gt;的属性通过代理直接挂载到实例，简化访问（&lt;code style=&quot;font-weight: var(--ds-font-weight-strong); font-family: var(--ds-font-family-code); background-color: var(--ds-md-inline-code-color,#ececec); border-radius: 4px; padding: 0.15rem 0.3rem;&quot;&gt;this.xxx&lt;/code&gt;）。&lt;/p&gt;&lt;/li&gt;&lt;/ul&gt;&lt;/li&gt;&lt;li style=&quot;margin-top: 4px;&quot;&gt;&lt;p style=&quot;margin: 0px 0px 4px; line-height: var(--ds-md-line-height);&quot;&gt;&lt;strong&gt;命名冲突检查&lt;/strong&gt;：&lt;/p&gt;&lt;ul style=&quot;margin-top: 4px; margin-right: ; margin-bottom: 0px; margin-left: ; padding-left: calc(var(--ds-md-zoom)*24px);&quot;&gt;&lt;li&gt;&lt;p style=&quot;margin-top: 0px; margin-right: 0px; margin-left: 0px; line-height: var(--ds-md-line-height); margin-bottom: 0px !important;&quot;&gt;在&lt;code style=&quot;font-weight: var(--ds-font-weight-strong); font-family: var(--ds-font-family-code); background-color: var(--ds-md-inline-code-color,#ececec); border-radius: 4px; padding: 0.15rem 0.3rem;&quot;&gt;initData&lt;/code&gt;、&lt;code style=&quot;font-weight: var(--ds-font-weight-strong); font-family: var(--ds-font-family-code); background-color: var(--ds-md-inline-code-color,#ececec); border-radius: 4px; padding: 0.15rem 0.3rem;&quot;&gt;initMethods&lt;/code&gt;、&lt;code style=&quot;font-weight: var(--ds-font-weight-strong); font-family: var(--ds-font-family-code); background-color: var(--ds-md-inline-code-color,#ececec); border-radius: 4px; padding: 0.15rem 0.3rem;&quot;&gt;initComputed&lt;/code&gt;中检查重复属性名，避免覆盖问题。&lt;/p&gt;&lt;/li&gt;&lt;/ul&gt;&lt;/li&gt;&lt;/ul&gt;" style="shape=note;whiteSpace=wrap;html=1;backgroundOutline=1;darkOpacity=0.05;fontSize=11;" vertex="1" parent="1">
          <mxGeometry x="120" y="820" width="550" height="170" as="geometry" />
        </mxCell>
      </root>
    </mxGraphModel>
  </diagram>
</mxfile>
